<svg width="35" height="35" viewBox="0 0 1136 1259" fill="none" xmlns="http://www.w3.org/2000/svg">
<g clip-path="url(#clip0_107_28)">
<mask id="mask0_107_28" style="mask-type:luminance" maskUnits="userSpaceOnUse" x="0" y="0" width="1136" height="1259">
<path d="M1136 0H0V1259H1136V0Z" fill="white"/>
</mask>
<g mask="url(#mask0_107_28)">
<mask id="mask1_107_28" style="mask-type:luminance" maskUnits="userSpaceOnUse" x="0" y="0" width="1136" height="1259">
<path d="M1136 0H0V1258.67H1136V0Z" fill="white"/>
</mask>
<g mask="url(#mask1_107_28)">
<path d="M195.451 113.617C178.918 117.217 169.718 120.817 159.185 127.75C131.718 146.017 114.785 172.017 111.451 201.217C109.051 222.017 109.718 253.35 112.785 267.35C116.785 285.35 127.185 320.95 130.918 329.35C132.651 333.35 134.118 337.217 134.118 338.15C134.118 343.084 173.585 421.084 181.051 430.95C182.385 432.817 189.985 445.084 197.851 458.284L211.985 482.15L212.918 518.95C213.451 539.084 214.251 682.15 214.785 836.95C215.318 991.617 216.118 1134.82 216.651 1154.95L217.585 1191.62L224.651 1205.22C238.651 1232.28 244.518 1238.55 272.518 1256.15L276.918 1258.95H563.585H850.118L859.718 1252.82C877.851 1241.22 893.718 1223.48 901.985 1205.48C909.985 1188.55 910.251 1186.15 911.185 1122.02C911.851 1079.22 912.518 1062.68 913.718 1061.48C914.785 1060.42 924.785 1059.62 943.985 1058.82C976.251 1057.75 981.185 1056.68 1000.12 1047.62C1023.05 1036.68 1036.65 1023.08 1048.12 999.617C1058.52 978.55 1062.38 954.017 1059.58 927.617C1055.72 892.417 1047.72 860.817 1034.65 830.284C1023.85 804.817 1019.58 795.617 1018.12 795.217C1016.25 794.55 1016.25 794.284 1020.78 806.95C1027.72 825.617 1038.38 860.284 1040.92 872.284C1044.38 888.017 1044.38 912.417 1040.92 926.017C1037.58 938.684 1034.52 944.684 1026.92 953.084C1002.12 980.684 948.785 980.284 880.118 951.884C821.318 927.484 755.718 889.35 691.451 842.15C660.118 819.217 649.985 811.084 611.318 778.284C551.051 727.217 524.118 702.417 479.585 656.284C411.985 586.284 377.585 548.284 354.118 517.484C314.518 465.617 303.718 450.95 287.051 426.284C244.918 363.884 214.785 307.084 198.651 259.75C186.918 225.484 185.985 220.817 185.185 189.617L184.385 162.15L191.585 149.084C197.585 138.15 200.118 134.95 206.651 129.884C217.451 121.75 223.451 119.35 239.318 116.684C246.785 115.35 252.785 114.017 252.785 113.484C252.785 110.15 211.318 110.15 195.451 113.617ZM295.051 591.884C297.851 595.484 304.251 603.217 309.318 609.35L318.518 620.417L319.451 830.017C320.118 945.35 320.518 1039.75 320.651 1040.02C320.785 1040.28 323.051 1041.48 325.851 1042.68C330.385 1044.82 348.118 1044.95 564.518 1045.35L798.118 1045.75L802.118 1041.75C804.785 1039.08 806.118 1036.55 806.118 1033.75C806.118 1025.62 813.185 1025.62 830.651 1033.75C841.985 1039.08 842.651 1040.02 841.718 1049.62C840.518 1063.35 833.185 1072.68 818.918 1078.95C812.651 1081.75 810.918 1081.88 691.051 1082.55C551.318 1083.22 318.118 1081.22 308.385 1079.08C300.118 1077.22 291.051 1069.88 288.118 1062.55C286.251 1058.15 285.585 1049.35 284.518 1019.62C283.051 977.484 283.718 589.75 285.318 587.217C287.185 584.284 289.985 585.617 295.051 591.884ZM589.718 1117.62C601.451 1119.08 608.518 1122.55 613.985 1129.22C621.051 1137.75 622.118 1144.02 622.118 1176.15C622.118 1208.55 621.451 1211.08 611.985 1221.62C602.118 1232.55 600.518 1232.95 562.918 1233.35L529.851 1233.75L524.651 1230.15C516.785 1224.82 509.451 1216.15 506.918 1209.48C504.918 1204.28 504.651 1199.22 505.051 1172.15C505.451 1137.35 505.985 1135.35 515.851 1125.75C523.985 1118.15 531.451 1116.42 557.451 1116.42C569.985 1116.42 584.518 1116.95 589.718 1117.62Z" fill="#FF9900"/>
<path d="M231.333 156.533C226.8 158.533 219.067 166.667 217.2 171.6C216.533 173.333 216 192.933 216 214.933V255.067L228.4 279.2C235.333 292.533 249.6 318.933 260.133 338L279.333 372.667L280 298.667L280.667 224.667L284.267 218.533C288.133 211.867 295.6 206 302.8 204C305.6 203.2 349.067 202.667 415.333 202.667C521.067 202.667 523.2 202.667 519.333 200.133C509.2 194 503.733 182.667 506.533 173.333C508.267 167.2 513.467 160.667 519.333 157.2C523.2 154.667 520.133 154.667 379.333 154.667C263.333 154.8 234.533 155.067 231.333 156.533Z" fill="#0066FF"/>
<path d="M603.333 157.7C613.6 163.833 618.933 175.167 616.133 184.633C614.4 190.633 606.667 199.833 602.267 201.433C600.667 201.967 653.333 202.767 719.333 203.167L839.333 203.833L845.467 207.433C852.133 211.3 858 218.767 860 225.967C860.8 228.767 861.333 323.433 861.333 485.167C861.467 759.167 863.2 882.5 867.067 884.767C868.133 885.3 876.533 891.7 885.867 899.167C895.067 906.5 902.933 912.5 903.333 912.5C903.733 912.5 904 747.3 903.867 545.433C903.867 267.967 903.467 177.433 902.267 174.367C900.133 168.767 894.8 162.767 888.267 158.633L882.667 155.167H741.067C602.4 155.167 599.467 155.167 603.333 157.7Z" fill="#0066FF"/>
<path d="M320 334.267L320.133 411.333L370 466.4C415.067 516.133 424.133 525.333 463.6 561.867L507.333 602.267L507.733 576.8C508 553.733 507.867 551.2 505.733 549.733C482 533.067 464.4 507.867 457.2 480.667C453.2 465.733 453.2 439.733 457.2 424.667C464.4 397.333 481.867 372.267 505.067 356.133C513.467 350.267 513.333 349.2 513.333 416.533V476.667L539.733 491.2L566 505.733L594.267 491.2L622.667 476.667V416.533C622.667 349.2 622.533 350.267 630.933 356.133C653.867 372.133 671.733 397.6 678.8 424.667C682.8 439.6 682.8 465.6 678.8 480.667C671.733 507.6 652.667 534.933 631.733 548.533L628 550.933V632.667V714.4L640.133 725.867C649.733 735.067 705.067 777.6 797.067 846.4L801.333 849.6V553.467V257.333H560.667H320V334.267Z" fill="#0066FF"/>
</g>
</g>
</g>
<defs>
<clipPath id="clip0_107_28">
<rect width="1136" height="1259" fill="white"/>
</clipPath>
</defs>
</svg>
